<?xml version="1.0" encoding="UTF-8" standalone="no"?>
<svg
   xmlns:dc="http://purl.org/dc/elements/1.1/"
   xmlns:cc="http://creativecommons.org/ns#"
   xmlns:rdf="http://www.w3.org/1999/02/22-rdf-syntax-ns#"
   xmlns:svg="http://www.w3.org/2000/svg"
   xmlns="http://www.w3.org/2000/svg"
   xmlns:sodipodi="http://sodipodi.sourceforge.net/DTD/sodipodi-0.dtd"
   xmlns:inkscape="http://www.inkscape.org/namespaces/inkscape"
   class="fxs-portal-svg"
   role="presentation"
   aria-hidden="true"
   viewBox="0 0 61 61"
   focusable="false"
   version="1.1"
   id="svg3737"
   sodipodi:docname="ServiceBusLogo.svg"
   inkscape:version="0.92.3 (2405546, 2018-03-11)"
   width="61"
   height="61"
   inkscape:export-filename="C:\Users\MatthewSteeples\source\repos\ServiceBusExplorer\media\ServiceBusLogo300.png"
   inkscape:export-xdpi="96"
   inkscape:export-ydpi="96">
  <metadata
     id="metadata3743">
    <rdf:RDF>
      <cc:Work
         rdf:about="">
        <dc:format>image/svg+xml</dc:format>
        <dc:type
           rdf:resource="http://purl.org/dc/dcmitype/StillImage" />
        <dc:title></dc:title>
      </cc:Work>
    </rdf:RDF>
  </metadata>
  <defs
     id="defs3741" />
  <sodipodi:namedview
     pagecolor="#ffffff"
     bordercolor="#666666"
     borderopacity="1"
     objecttolerance="10"
     gridtolerance="10"
     guidetolerance="10"
     inkscape:pageopacity="0"
     inkscape:pageshadow="2"
     inkscape:window-width="1920"
     inkscape:window-height="1017"
     id="namedview3739"
     showgrid="false"
     inkscape:zoom="8.48"
     inkscape:cx="-26.416622"
     inkscape:cy="34.948005"
     inkscape:window-x="1192"
     inkscape:window-y="446"
     inkscape:window-maximized="1"
     inkscape:current-layer="g3735"
     fit-margin-top="0"
     fit-margin-left="0"
     fit-margin-right="0"
     fit-margin-bottom="0" />
  <g
     id="g3735"
     transform="translate(0,0.01176071)">
    <path
       class="msportalfx-svg-c19"
       d="M 0.833,0 C 0.333,0 0,0.333 0,0.833 v 10 c 0,0.5 0.333,0.833 0.833,0.833 h 5 c 0.5,0 0.833,-0.333 0.833,-0.833 V 6.667 h 36.667 v 4.167 c 0,0.5 0.333,0.833 1,0.833 h 4.833 c 0.5,0 0.833,-0.333 0.833,-0.833 v -10 C 50,0.333 49.667,0 49.167,0 Z M 49.167,50 C 49.667,50 50,49.667 50,49.167 v -9.833 c 0,-0.5 -0.333,-0.833 -0.833,-0.833 h -4.833 c -0.5,0 -0.833,0.333 -0.833,0.833 v 4 H 6.667 v -4.167 c 0,-0.5 -0.333,-0.833 -1,-0.833 H 0.833 c -0.5,0 -0.833,0.333 -0.833,1 v 9.833 C 0,49.667 0.333,50 0.833,50 Z"
       id="path3729"
       style="fill:#0072c6;fill-opacity:1"
       inkscape:connector-curvature="0" />
    <path
       class="msportalfx-svg-c15"
       d="M 29.857,26.098 C 28.56,27.395 26.835,28.11 25,28.11 c -1.835,0 -3.56,-0.714 -4.858,-2.012 L 10.833,16.789 V 35.712 H 39.166 V 16.788 Z"
       id="path3731"
       style="fill:#59b4d9;fill-opacity:1"
       inkscape:connector-curvature="0" />
    <path
       class="msportalfx-svg-c15"
       d="m 25,26.728 a 5.451,5.451 0 0 0 3.88,-1.607 L 39.166,14.835 V 14.29 H 10.833 v 0.546 L 21.119,25.12 A 5.452,5.452 0 0 0 25,26.728 Z"
       id="path3733"
       style="fill:#59b4d9;fill-opacity:1"
       inkscape:connector-curvature="0" />
    <path
       id="path3745"
       d="m 36.972305,37.171107 a 16.834941,16.834941 0 1 0 -0.220068,0.220061 L 55.45773,56.096659 M 45.444792,43.222883 57.548344,55.326434 54.687505,58.187273 42.583954,46.083722"
       inkscape:connector-curvature="0"
       style="fill:none;stroke:#000000;stroke-width:3.96116257;stroke-linecap:round" />
  </g>
</svg>
